<?xml version="1.0" encoding="UTF-8"?>
<svg id="Layer_1" data-name="Layer 1" xmlns="http://www.w3.org/2000/svg" viewBox="0 0 59 59">
  <defs>
    <style>
      .cls-1 {
        fill: #2b2b2b;
      }

      .cls-2 {
        fill: #fff;
      }
    </style>
  </defs>
  <path class="cls-2" d="M53.06,43.1l-23.56,13.6-23.56-13.6V15.9S29.5,2.29,29.5,2.29l23.56,13.6v27.21Z"/>
  <path class="cls-1" d="M29.5.63l25,14.43v28.87l-25,14.43-25-14.43V15.07L29.5.63ZM52.34,42.69v-26.38L29.5,3.12,6.66,16.31v26.38l22.84,13.19,22.84-13.19ZM11.3,18.99l18.2-10.51,18.2,10.51v21.02l-18.2,10.51-18.2-10.51v-21.02ZM22.04,33.8c-.09-.17-.17-.39-.26-.56.17-.6.3-1.21.52-1.85.13-.3.3-.65.43-1.03.26-.91.52-1.77.82-2.63.3-.86.69-1.68,1.21-2.46.56-.95,1.08-1.94,1.55-2.97.43-.73.91-1.47,1.34-2.16.86-1.29,1.77-2.54,2.67-3.75.22-.22.43-.47.69-.69.69-.91,1.38-1.85,2.07-2.8.04-.17.04-.34,0-.52-.17-.04-.34-.04-.56,0-.56.26-1.08.52-1.64.78-.52.22-1.03.56-1.51.95-2.76,2.28-4.78,5.13-6.08,8.49-.43,1.12-.86,2.28-1.25,3.41-.91,2.93-1.42,5.91-1.55,8.92.04.34.13.69.22.99.22.47.43.52.73.13.43-.78.86-1.59,1.29-2.37.09-.17.17-.39.22-.6-.17.13-.34.26-.52.43-.13.09-.26.22-.39.3ZM34.97,18.54c-.69-.43-1.38-.78-2.16-1.08-.65-.34-1.12-.17-1.47.52-.47.69-.91,1.42-1.34,2.24-.73,1.42-1.38,2.84-2.07,4.31-.09.09-.13.17-.09.26.13,0,.22-.04.3-.13.17-.34.39-.6.6-.86.56-.65,1.16-1.29,1.77-1.85.34-.22.47-.13.43.26.09,1.94.13,3.88.22,5.82,0,.34.04.69.09,1.08.04.65,0,1.16-.04,1.59-.09.43-.13.65-.09.69v1.51c.09,2.72-.6,5.26-2.07,7.59-.82,1.34-1.98,2.33-3.41,2.97h-.56v-.86c-.09.09-.13.13-.22.17-.6.6-1.16,1.25-1.68,1.9-.17.26-.17.52-.09.78.09.26.26.43.52.47.39,0,.78-.09,1.12-.22.56-.34,1.08-.73,1.55-1.21,1.08-.73,2.11-1.51,3.1-2.33.3-.22.6-.52.91-.82,1.29-1.21,2.54-2.46,3.75-3.79.43-.43.86-.86,1.25-1.38.43-.47.69-1.03.78-1.64.17-.17.3-.3.43-.43.13-.09.22-.22.3-.34.04-1.08.09-2.16.17-3.23.04-2.37.13-4.7.34-7.07.17-2.16-.6-3.79-2.37-4.91Z"/>
</svg>